<?xml version="1.0" encoding="utf-8"?>
<!-- Generator: Adobe Illustrator 18.1.1, SVG Export Plug-In . SVG Version: 6.00 Build 0)  -->
<!DOCTYPE svg PUBLIC "-//W3C//DTD SVG 1.1//EN" "http://www.w3.org/Graphics/SVG/1.1/DTD/svg11.dtd">
<svg version="1.1" id="Layer_1" xmlns="http://www.w3.org/2000/svg" xmlns:xlink="http://www.w3.org/1999/xlink" x="0px" y="0px"
	 viewBox="81.1 119 19.7 14" enable-background="new 81.1 119 19.7 14" xml:space="preserve">
<g>
	<polygon fill="#FFFFFF" points="96.1,120.8 92.3,120.8 96.1,122 	"/>
	<polygon fill="#FFFFFF" points="84.3,131.5 81.5,122.2 86.1,120.8 86.1,120.5 87.1,120.5 90.8,119.4 91.1,120.5 91.4,120.5 91,119 
		81.1,122 84.1,131.8 87.6,130.8 86.6,130.8 	"/>
	<polygon fill="#FFFFFF" points="88.4,130.2 91.2,120.9 91.3,120.8 91.2,120.8 86.4,120.8 86.4,130.5 87.6,130.5 88.6,130.5 
		88.7,130.5 88.4,130.3 	"/>
	<polygon fill="#FFFFFF" points="96.4,122.4 96.2,122.3 96.1,122.3 91.5,120.9 91.4,121.4 88.7,130.1 89.2,130.3 89.8,130.5 
		90.3,130.6 90.8,130.8 98,133 100.8,123.7 	"/>
</g>
</svg>
